<!DOCTYPE svg PUBLIC "-//W3C//DTD SVG 1.1//EN" "http://www.w3.org/Graphics/SVG/1.1/DTD/svg11.dtd">
<!-- Uploaded to: SVG Repo, www.svgrepo.com, Transformed by: SVG Repo Mixer Tools -->
<svg fill="#000000" height="800px" width="800px" version="1.1" id="Layer_1" xmlns="http://www.w3.org/2000/svg" xmlns:xlink="http://www.w3.org/1999/xlink" viewBox="0 0 512 512" xml:space="preserve">
<g id="SVGRepo_bgCarrier" stroke-width="0"/>
<g id="SVGRepo_tracerCarrier" stroke-linecap="round" stroke-linejoin="round"/>
<g id="SVGRepo_iconCarrier"> <g> <g> <g> <path d="M448,341.333h-21.333V234.667C426.667,140.565,350.101,64,256,64S85.333,140.565,85.333,234.667v106.667H64 c-11.797,0-21.333,9.557-21.333,21.333v128C42.667,502.443,52.203,512,64,512h384c11.797,0,21.333-9.557,21.333-21.333v-128 C469.333,350.891,459.797,341.333,448,341.333z M256,128c11.776,0,21.333,9.557,21.333,21.333 c0,11.776-9.557,21.333-21.333,21.333c-11.776,0-21.333-9.557-21.333-21.333C234.667,137.557,244.224,128,256,128z M256,298.667 c11.776,0,21.333,9.557,21.333,21.333s-9.557,21.333-21.333,21.333c-11.776,0-21.333-9.557-21.333-21.333 S244.224,298.667,256,298.667z M213.333,298.667c-11.776,0-21.333-9.557-21.333-21.333S201.557,256,213.333,256 s21.333,9.557,21.333,21.333S225.109,298.667,213.333,298.667z M256,256c-11.776,0-21.333-9.557-21.333-21.333 s9.557-21.333,21.333-21.333c11.776,0,21.333,9.557,21.333,21.333S267.776,256,256,256z M213.333,170.667 c11.776,0,21.333,9.557,21.333,21.333s-9.557,21.333-21.333,21.333S192,203.776,192,192S201.557,170.667,213.333,170.667z M170.667,213.333c11.776,0,21.333,9.557,21.333,21.333S182.443,256,170.667,256s-21.333-9.557-21.333-21.333 S158.891,213.333,170.667,213.333z M170.667,298.667c11.776,0,21.333,9.557,21.333,21.333s-9.557,21.333-21.333,21.333 s-21.333-9.557-21.333-21.333S158.891,298.667,170.667,298.667z M426.667,469.333H85.333V384h21.333h298.667h21.333V469.333z"/> <path d="M256,42.667c11.797,0,21.333-9.557,21.333-21.333S267.797,0,256,0c-11.797,0-21.333,9.557-21.333,21.333 S244.203,42.667,256,42.667z"/> <path d="M490.667,170.667h-21.333C457.536,170.667,448,180.224,448,192s9.536,21.333,21.333,21.333h21.333 c11.797,0,21.333-9.557,21.333-21.333S502.464,170.667,490.667,170.667z"/> <path d="M426.667,85.333c5.461,0,10.923-2.091,15.083-6.251l21.333-21.333c8.341-8.341,8.341-21.824,0-30.165 c-8.341-8.341-21.824-8.341-30.165,0l-21.333,21.333c-8.341,8.341-8.341,21.824,0,30.165 C415.744,83.243,421.205,85.333,426.667,85.333z"/> <path d="M64,192c0-11.776-9.536-21.333-21.333-21.333H21.333C9.536,170.667,0,180.224,0,192s9.536,21.333,21.333,21.333h21.333 C54.464,213.333,64,203.776,64,192z"/> <path d="M70.251,79.083c4.16,4.16,9.621,6.251,15.083,6.251c5.461,0,10.923-2.091,15.083-6.251 c8.341-8.341,8.341-21.824,0-30.165L79.083,27.584c-8.341-8.341-21.824-8.341-30.165,0c-8.341,8.341-8.341,21.824,0,30.165 L70.251,79.083z"/> </g> </g> </g> </g>
</svg>